<svg width="22" height="22" viewBox="0 0 22 22" fill="none" xmlns="http://www.w3.org/2000/svg">
<path d="M8.64509 0.104502C5.73917 0.109471 2.40078 1.90071 0.5 4.10425C0.5 4.10425 4.93119 3.71106 5.64369 5.76724C6.79447 9.08814 0.779562 8.71249 0.692797 13.9058C0.627453 17.8185 4.88155 21.8632 8.94748 21.8658C9.14502 21.9316 17.4765 21.8658 17.4765 21.8658C18.4039 21.8526 18.4424 20.8087 15.1885 20.1484C22.0131 13.2178 11.1224 12.6918 11.1827 18.0025C10.341 17.1211 11.2098 13.3236 15.762 13.5104C17.3047 14.611 18.191 14.7935 19.9133 14.4143C20.2406 14.3423 20.4781 13.2113 19.6573 13.1457L18.1676 13.0266C16.8501 11.823 16.5355 11.3168 17.8549 10.333C21.0832 11.1795 21.4665 10.8991 21.465 9.70821C21.4636 8.54313 21.0185 5.45978 18.3792 5.31063C18.0182 4.8273 18.8381 3.33991 18.1939 3.29702C17.3026 3.23767 15.8275 4.62906 16.0251 5.34953C15.1657 5.71305 14.2098 6.80997 13.2525 8.14394C10.0033 9.33597 7.65139 14.8301 7.62045 16.1423C7.59331 7.59067 14.8037 7.67697 14.1931 4.66872C13.5335 1.41916 11.0528 0.100377 8.64509 0.104502ZM19.2703 6.9671C19.6062 6.9671 19.8784 7.23935 19.8784 7.5752C19.8784 7.91102 19.6062 8.18327 19.2703 8.18327C18.9345 8.18327 18.6622 7.91102 18.6622 7.5752C18.6622 7.23935 18.9345 6.9671 19.2703 6.9671Z" fill="#EBAA15"/>
</svg>
